<svg width="929" height="210" viewBox="0 0 929 210" fill="none" xmlns="http://www.w3.org/2000/svg">
<g clip-path="url(#clip0_12_25)">
<mask id="path-1-outside-1_12_25" maskUnits="userSpaceOnUse" x="558" y="44" width="371" height="120" fill="black">
<rect fill="white" x="558" y="44" width="371" height="120"/>
<path d="M919 154H899V134H889V124H884V114H874V154H859V134L849 133.9V64H859V54H874V79H884V69H894V54H914V74H909V84H899V94H889V104H899V114H909V124H919V154Z"/>
<path d="M811.333 154V134H801.444V124H791.556V144H801.444V154H752V144H761.889V84H752V64H821.222V74H831.111V84H841V94H831.111V104H811.333V114H821.222V124H831.111V134H841V154H811.333ZM791.556 99H801.444V94H811.333V84H801.444V79H791.556V99Z"/>
<path d="M744 144H724.5V134H714.75V124H695.25V134H685.5V144H675.75V134H666V94H675.75V74H685.5V64H695.25V54H714.75V64H724.5V74H734.25V94H744V144ZM695.25 104H714.75V94H709.875V84H700.125V94H695.25V104Z"/>
<path d="M568 74V54H637.222V64H647.111V74H657V124H647.111V134H637.222V154H577.889V74H568ZM617.444 124V119H627.333V104H637.222V94H627.333V84H617.444V74H607.556V124H617.444Z"/>
</mask>
<path d="M919 154H899V134H889V124H884V114H874V154H859V134L849 133.9V64H859V54H874V79H884V69H894V54H914V74H909V84H899V94H889V104H899V114H909V124H919V154Z" fill="#9A14ED"/>
<path d="M811.333 154V134H801.444V124H791.556V144H801.444V154H752V144H761.889V84H752V64H821.222V74H831.111V84H841V94H831.111V104H811.333V114H821.222V124H831.111V134H841V154H811.333ZM791.556 99H801.444V94H811.333V84H801.444V79H791.556V99Z" fill="#9A14ED"/>
<path d="M744 144H724.5V134H714.75V124H695.25V134H685.5V144H675.75V134H666V94H675.75V74H685.5V64H695.25V54H714.75V64H724.5V74H734.25V94H744V144ZM695.25 104H714.75V94H709.875V84H700.125V94H695.25V104Z" fill="#9A14ED"/>
<path d="M568 74V54H637.222V64H647.111V74H657V124H647.111V134H637.222V154H577.889V74H568ZM617.444 124V119H627.333V104H637.222V94H627.333V84H617.444V74H607.556V124H617.444Z" fill="#9A14ED"/>
<path d="M919 154H899V134H889V124H884V114H874V154H859V134L849 133.9V64H859V54H874V79H884V69H894V54H914V74H909V84H899V94H889V104H899V114H909V124H919V154Z" stroke="#9A14ED" stroke-width="20" mask="url(#path-1-outside-1_12_25)"/>
<path d="M811.333 154V134H801.444V124H791.556V144H801.444V154H752V144H761.889V84H752V64H821.222V74H831.111V84H841V94H831.111V104H811.333V114H821.222V124H831.111V134H841V154H811.333ZM791.556 99H801.444V94H811.333V84H801.444V79H791.556V99Z" stroke="#9A14ED" stroke-width="20" mask="url(#path-1-outside-1_12_25)"/>
<path d="M744 144H724.5V134H714.75V124H695.25V134H685.5V144H675.75V134H666V94H675.75V74H685.5V64H695.25V54H714.75V64H724.5V74H734.25V94H744V144ZM695.25 104H714.75V94H709.875V84H700.125V94H695.25V104Z" stroke="#9A14ED" stroke-width="20" mask="url(#path-1-outside-1_12_25)"/>
<path d="M568 74V54H637.222V64H647.111V74H657V124H647.111V134H637.222V154H577.889V74H568ZM617.444 124V119H627.333V104H637.222V94H627.333V84H617.444V74H607.556V124H617.444Z" stroke="#9A14ED" stroke-width="20" mask="url(#path-1-outside-1_12_25)"/>
<mask id="path-2-outside-2_12_25" maskUnits="userSpaceOnUse" x="558" y="34" width="371" height="120" fill="black">
<rect fill="white" x="558" y="34" width="371" height="120"/>
<path d="M919 144H899V124H889V114H884V104H874V144H859V124L849 123.9V54H859V44H874V69H884V59H894V44H914V64H909V74H899V84H889V94H899V104H909V114H919V144Z"/>
<path d="M811.333 144V124H801.444V114H791.556V134H801.444V144H752V134H761.889V74H752V54H821.222V64H831.111V74H841V84H831.111V94H811.333V104H821.222V114H831.111V124H841V144H811.333ZM791.556 89H801.444V84H811.333V74H801.444V69H791.556V89Z"/>
<path d="M744 134H724.5V124H714.75V114H695.25V124H685.5V134H675.75V124H666V84H675.75V64H685.5V54H695.25V44H714.75V54H724.5V64H734.25V84H744V134ZM695.25 94H714.75V84H709.875V74H700.125V84H695.25V94Z"/>
<path d="M568 64V44H637.222V54H647.111V64H657V114H647.111V124H637.222V144H577.889V64H568ZM617.444 114V109H627.333V94H637.222V84H627.333V74H617.444V64H607.556V114H617.444Z"/>
</mask>
<path d="M919 144H899V124H889V114H884V104H874V144H859V124L849 123.9V54H859V44H874V69H884V59H894V44H914V64H909V74H899V84H889V94H899V104H909V114H919V144Z" fill="black"/>
<path d="M811.333 144V124H801.444V114H791.556V134H801.444V144H752V134H761.889V74H752V54H821.222V64H831.111V74H841V84H831.111V94H811.333V104H821.222V114H831.111V124H841V144H811.333ZM791.556 89H801.444V84H811.333V74H801.444V69H791.556V89Z" fill="black"/>
<path d="M744 134H724.5V124H714.75V114H695.25V124H685.5V134H675.75V124H666V84H675.75V64H685.5V54H695.25V44H714.75V54H724.5V64H734.25V84H744V134ZM695.25 94H714.75V84H709.875V74H700.125V84H695.25V94Z" fill="black"/>
<path d="M568 64V44H637.222V54H647.111V64H657V114H647.111V124H637.222V144H577.889V64H568ZM617.444 114V109H627.333V94H637.222V84H627.333V74H617.444V64H607.556V114H617.444Z" fill="black"/>
<path d="M919 144H899V124H889V114H884V104H874V144H859V124L849 123.9V54H859V44H874V69H884V59H894V44H914V64H909V74H899V84H889V94H899V104H909V114H919V144Z" stroke="black" stroke-width="20" mask="url(#path-2-outside-2_12_25)"/>
<path d="M811.333 144V124H801.444V114H791.556V134H801.444V144H752V134H761.889V74H752V54H821.222V64H831.111V74H841V84H831.111V94H811.333V104H821.222V114H831.111V124H841V144H811.333ZM791.556 89H801.444V84H811.333V74H801.444V69H791.556V89Z" stroke="black" stroke-width="20" mask="url(#path-2-outside-2_12_25)"/>
<path d="M744 134H724.5V124H714.75V114H695.25V124H685.5V134H675.75V124H666V84H675.75V64H685.5V54H695.25V44H714.75V54H724.5V64H734.25V84H744V134ZM695.25 94H714.75V84H709.875V74H700.125V84H695.25V94Z" stroke="black" stroke-width="20" mask="url(#path-2-outside-2_12_25)"/>
<path d="M568 64V44H637.222V54H647.111V64H657V114H647.111V124H637.222V144H577.889V64H568ZM617.444 114V109H627.333V94H637.222V84H627.333V74H617.444V64H607.556V114H617.444Z" stroke="black" stroke-width="20" mask="url(#path-2-outside-2_12_25)"/>
<path d="M308 59V54V49H303H243H241V48.9498L235.95 49.0002L225.975 49.0999H186H181V54.0999V59.0888H176H174V58.9498L168.95 59.0002L158.975 59.0999H119H114V64.0999V69.0888H109H104V74.0888V79H99H94.1111V74V69H89.1111H84.2222V64V59H79.2222H10H5V64V84V89H10H14.8889V154V159H19.8889H79.2222H84.2222V154V149H89.1111H94.1111V144V139H99H104V144.011V149.011H109H114V154V159H119H169H174V154V139.011H176H181V144V149H186H236H238V154V159H243H293H298V154V134V129H293H288V119H303H308V114V109H313H318V104V99H323H328V94V74V69H323H318V64V59H313H308ZM243 79H248V129H243H241V124.022V119.022H236H231V114.033V109.033H226V104.044V94.0555V89.0666H231V84.0666V79.0777H236H241V79H243ZM171 89.0777V129.022H169H164V124.033V119.033H159V114.044V104.056V99.0666H164V94.0666V89.0777H169H171ZM59.4444 124H54.5556V99H59.4444H64.3333V104V109V114V124H59.4444Z" fill="#9A14ED" stroke="#9A14ED" stroke-width="10"/>
<path d="M308 49V44V39H303H243H241V38.9498L235.95 39.0002L225.975 39.0999H186H181V44.0999V49.0888H176H174V48.9498L168.95 49.0002L158.975 49.0999H119H114V54.0999V59.0888H109H104V64.0888V69H99H94.1111V64V59H89.1111H84.2222V54V49H79.2222H10H5V54V74V79H10H14.8889V144V149H19.8889H79.2222H84.2222V144V139H89.1111H94.1111V134V129H99H104V134.011V139.011H109H114V144V149H119H169H174V144V129.011H176H181V134V139H186H236H238V144V149H243H293H298V144V124V119H293H288V109H303H308V104V99H313H318V94V89H323H328V84V64V59H323H318V54V49H313H308ZM243 69H248V119H243H241V114.022V109.022H236H231V104.033V99.0333H226V94.0444V84.0555V79.0666H231V74.0666V69.0777H236H241V69H243ZM171 79.0777V119.022H169H164V114.033V109.033H159V104.044V94.0555V89.0666H164V84.0666V79.0777H169H171ZM59.4444 114H54.5556V89H59.4444H64.3333V94V99V104V114H59.4444Z" fill="black" stroke="black" stroke-width="10"/>
<mask id="path-5-outside-3_12_25" maskUnits="userSpaceOnUse" x="558" y="14" width="371" height="130" fill="black">
<rect fill="white" x="558" y="14" width="371" height="130"/>
<path d="M919 124H899V114H889V104H884V94H874V124H859V114L849 113.9V44H859V34H874V59H884V49H894V34H914V54H909V64H899V74H889V84H899V94H909V104H919V124Z"/>
<path d="M811.333 134V114H801.444V104H791.556V124H801.444V134H752V124H761.889V64H752V44H821.222V54H831.111V64H841V74H831.111V84H811.333V94H821.222V104H831.111V114H841V134H811.333ZM791.556 79H801.444V74H811.333V64H801.444V59H791.556V79Z"/>
<path d="M744 124H724.5V114H714.75V104H695.25V114H685.5V124H675.75V114H666V74H675.75V54H685.5V44H695.25V34H714.75V44H724.5V54H734.25V74H744V124ZM695.25 84H714.75V74H709.875V64H700.125V74H695.25V84Z"/>
<path d="M568 44V24H637.222V34H647.111V44H657V94H647.111V104H637.222V114H577.889V44H568ZM617.444 94V89H627.333V74H637.222V64H627.333V54H617.444V44H607.556V94H617.444Z"/>
</mask>
<path d="M919 124H899V114H889V104H884V94H874V124H859V114L849 113.9V44H859V34H874V59H884V49H894V34H914V54H909V64H899V74H889V84H899V94H909V104H919V124Z" fill="white"/>
<path d="M811.333 134V114H801.444V104H791.556V124H801.444V134H752V124H761.889V64H752V44H821.222V54H831.111V64H841V74H831.111V84H811.333V94H821.222V104H831.111V114H841V134H811.333ZM791.556 79H801.444V74H811.333V64H801.444V59H791.556V79Z" fill="white"/>
<path d="M744 124H724.5V114H714.75V104H695.25V114H685.5V124H675.75V114H666V74H675.75V54H685.5V44H695.25V34H714.75V44H724.5V54H734.25V74H744V124ZM695.25 84H714.75V74H709.875V64H700.125V74H695.25V84Z" fill="white"/>
<path d="M568 44V24H637.222V34H647.111V44H657V94H647.111V104H637.222V114H577.889V44H568ZM617.444 94V89H627.333V74H637.222V64H627.333V54H617.444V44H607.556V94H617.444Z" fill="white"/>
<path d="M919 124H899V114H889V104H884V94H874V124H859V114L849 113.9V44H859V34H874V59H884V49H894V34H914V54H909V64H899V74H889V84H899V94H909V104H919V124Z" stroke="white" stroke-width="20" mask="url(#path-5-outside-3_12_25)"/>
<path d="M811.333 134V114H801.444V104H791.556V124H801.444V134H752V124H761.889V64H752V44H821.222V54H831.111V64H841V74H831.111V84H811.333V94H821.222V104H831.111V114H841V134H811.333ZM791.556 79H801.444V74H811.333V64H801.444V59H791.556V79Z" stroke="white" stroke-width="20" mask="url(#path-5-outside-3_12_25)"/>
<path d="M744 124H724.5V114H714.75V104H695.25V114H685.5V124H675.75V114H666V74H675.75V54H685.5V44H695.25V34H714.75V44H724.5V54H734.25V74H744V124ZM695.25 84H714.75V74H709.875V64H700.125V74H695.25V84Z" stroke="white" stroke-width="20" mask="url(#path-5-outside-3_12_25)"/>
<path d="M568 44V24H637.222V34H647.111V44H657V94H647.111V104H637.222V114H577.889V44H568ZM617.444 94V89H627.333V74H637.222V64H627.333V54H617.444V44H607.556V94H617.444Z" stroke="white" stroke-width="20" mask="url(#path-5-outside-3_12_25)"/>
<path d="M919 124H899V114H889V104H884V94H874V124H859V114L849 113.9V44H859V34H874V59H884V49H894V34H914V54H909V64H899V74H889V84H899V94H909V104H919V124Z" fill="black"/>
<path d="M811.333 134V114H801.444V104H791.556V124H801.444V134H752V124H761.889V64H752V44H821.222V54H831.111V64H841V74H831.111V84H811.333V94H821.222V104H831.111V114H841V134H811.333ZM791.556 79H801.444V74H811.333V64H801.444V59H791.556V79Z" fill="black"/>
<path d="M744 124H724.5V114H714.75V104H695.25V114H685.5V124H675.75V114H666V74H675.75V54H685.5V44H695.25V34H714.75V44H724.5V54H734.25V74L744 84V124ZM695.25 84H714.75V74H709.875V64H700.125V74H695.25V84Z" fill="black"/>
<path d="M568 44V24H637.222V34H647.111V44H657V94H647.111V104H637.222V114H577.889V44H568ZM617.444 94V89H627.333V74H637.222V64H627.333V54H617.444V44H607.556V94H617.444Z" fill="black"/>
<path d="M308 29V24V19H303H243H238V24V28.9798L235.95 29.0002L225.975 29.0999H186H181V34.0999V39.0888H176H174V38.9498L168.95 39.0002L158.975 39.0999H119H114V44.0999V49.0888H109H104V49H99H94.1111V44V39H89.1111H84.2222V34V29H79.2222H10H5V34V54V59H10H14.8889V124V129H19.8889H79.2222H84.2222V124V119H89.1111H94.1111V114V109H99H104V124.011V129.011H109H114V134V139H119H169H174V134V119.011H176H181V124V129H186H236H241V124V119H243H293H298V114V104V99H293H288V89H303H308V84V79H313H318V74V69H323H328V64V44V39H323H318V34V29H313H308ZM243 49H248V99H243H238V99.0222H236H231V94.0333V89.0333H226V84.0444V74.0555V69.0666H231V64.0666V59.0777H236H241V54.0777V49H243ZM171 69.0777V109.022H169H164V104.033V99.0333H159V94.0444V84.0555V79.0666H164V74.0666V69.0777H169H171ZM59.4444 94H54.5556V69H59.4444H64.3333V74V79V84V94H59.4444Z" fill="white" stroke="white" stroke-width="10"/>
<path d="M303 59V49H293V44H283V69H293V59H303ZM243 44V24H303V34H313V44H323V64H313V74H303V84H283V104H293V114H243V104H253V44H243Z" fill="black"/>
<path d="M236 124H186V114.011H176V44.0888H186V34.0999H226L236 34V54.0777H226V64.0666H201V74.0555H221V84.0444H201V94.0333H226V104.022H236V124Z" fill="black"/>
<path d="M169 134H119V124.011H109V54.0888H119V44.0999H159L169 44V64.0777H159V74.0666H134V84.0555H154V94.0444H134V104.033H159V114.022H169V134Z" fill="black"/>
<path d="M10 54V34H79.2222V44H89.1111V54H99V104H89.1111V114H79.2222V124H19.8889V54H10ZM59.4444 104V99H69.3333V84H79.2222V74H69.3333V64H59.4444V54H49.5556V104H59.4444Z" fill="black"/>
<path d="M395 35H390V40V45H375H370V50V55H365H360V60V65H355H350V70V150V155H355H360V160V165H365H370V170V175H375H390V200V205H395H415H420V200V175H430V200V205H435H455H460V200V175H470V200V205H475H495H500V200V175H515H520V170V165H525H530V160V155H535H540V150V70V65H535H530V60V55H525H520V50V45H515H500V40V35H495H395ZM440 140V135H450V140V145H440V140Z" fill="#9A14ED" stroke="#9A14ED" stroke-width="10"/>
<path d="M395 25H390V30V35H375H370V40V45H365H360V50V55H355H350V60V140V145H355H360V150V155H365H370V160V165H375H390V190V195H395H415H420V190V165H430V190V195H435H455H460V190V165H470V190V195H475H495H500V190V165H515H520V160V155H525H530V150V145H535H540V140V60V55H535H530V50V45H525H520V40V35H515H500V30V25H495H395ZM440 130V125H450V130V135H440V130Z" fill="black" stroke="black" stroke-width="10"/>
<path d="M395 5H390V10V15H375H370V20V25H365H360V30V35H355H350V40V120V125H355H360V130V135H365H370V140V145H375H390V160V165H395H415H420V160V145H430V160V165H435H455H460V160V145H470V160V165H475H495H500V160V145H515H520V140V135H525H530V130V125H535H540V120V40V35H535H530V30V25H525H520V20V15H515H500V10V5H495H395ZM440 110V105H450V110V115H440V110Z" fill="white" stroke="white" stroke-width="10"/>
<path d="M505 70H485V90H505V70Z" fill="black"/>
<path d="M405 70V90H385V70H405Z" fill="black"/>
<path fill-rule="evenodd" clip-rule="evenodd" d="M395 10V20H375V30H365V40H355V120H365V130H375V140H395V160H415V140H435V160H455V140H475V160H495V140H515V130H525V120H535V40H525V30H515V20H495V10H395ZM515 60V100H475V60H515ZM435 100V110H425V120H465V110H455V100H435ZM415 60H375V100H415V60Z" fill="black"/>
<rect x="485" y="70" width="20" height="20" fill="#9A14ED"/>
<rect x="385" y="70" width="20" height="20" fill="#9A14ED"/>
<rect x="20" y="114" width="10" height="10" fill="#C81A59"/>
<rect x="40" y="114" width="10" height="10" fill="#C81A59"/>
<rect x="60" y="114" width="10" height="10" fill="#C81A59"/>
<rect x="119" y="124" width="10" height="10" fill="#C81A59"/>
<rect x="186" y="114" width="10" height="10" fill="#C81A59"/>
<rect x="159" y="114" width="10" height="10" fill="#C81A59"/>
<rect x="149" y="124" width="10" height="10" fill="#C81A59"/>
<rect x="206" y="114" width="10" height="10" fill="#C81A59"/>
<rect x="216" y="104" width="10" height="10" fill="#C81A59"/>
<rect x="243" y="104" width="10" height="10" fill="#C81A59"/>
<rect x="263" y="104" width="10" height="10" fill="#C81A59"/>
<rect x="578" y="104" width="10" height="10" fill="#C81A59"/>
<rect x="791" y="124" width="10" height="10" fill="#C81A59"/>
<rect x="771" y="124" width="10" height="10" fill="#C81A59"/>
<rect x="771" y="114" width="10" height="10" fill="#C81A59"/>
<rect x="761" y="104" width="10" height="10" fill="#C81A59"/>
<rect x="811" y="124" width="10" height="10" fill="#C81A59"/>
<rect x="821" y="114" width="10" height="10" fill="#C81A59"/>
<rect x="864" y="114" width="10" height="10" fill="#C81A59"/>
<rect x="899" y="114" width="10" height="10" fill="#C81A59"/>
<rect x="889" y="104" width="10" height="10" fill="#C81A59"/>
<rect x="715" y="104" width="10" height="10" fill="#C81A59"/>
<rect x="725" y="114" width="10" height="10" fill="#C81A59"/>
<rect x="725" y="94" width="10" height="10" fill="#C81A59"/>
<rect x="695" y="94" width="10" height="10" fill="#C81A59"/>
<rect x="675" y="114" width="10" height="10" fill="#C81A59"/>
<rect x="628" y="104" width="10" height="10" fill="#C81A59"/>
<rect x="607" y="104" width="10" height="10" fill="#C81A59"/>
<rect x="273" y="94" width="10" height="10" fill="#C81A59"/>
</g>
<defs>
<clipPath id="clip0_12_25">
<rect width="929" height="210" fill="white"/>
</clipPath>
</defs>
</svg>
